<svg id="an012" xmlns="http://www.w3.org/2000/svg" viewBox="0 0 48.8 62.78"><defs><style>.cls-1{fill:#F0EBE6;}.cls-2{fill:none;stroke:#C8B46E;stroke-miterlimit:10;}.cls-3{fill:#C8B46E;fill-rule:evenodd;}</style></defs><path class="cls-1" d="M39.36,17.33a3.7,3.7,0,0,1-1.12.93,10.21,10.21,0,0,1-2.5,0l-1-1.11-.69-1-1,1.56-.82,1H29.85l-.81-1-.51-1.6-1.1.35-1.67.64h-.68l-.86.93-.37.47-1.29-1.93-1.21.29L20,16.16l-.87.6L18.51,18l-1.09.77H15.78l-1.31-1.28L14,16.16l-1,1L11.54,18.3l-1.16.23L10,18.45l-1.29-.78-1.29.2L5,19.78,1.43,25,.15,29.7,0,33.26l.5,2.92,1.26,3.53L4,43.16,7.5,46.21H8.66l1.79-.74,1.7.59,1.44,1.64.87-.85.89-1.22,1.85-.36,2,1.38-.09,1.55.54.19,1-1.19,1.84.18.56-.93.59-.83,1.12,1.23.65.4,1.19-.14,1.08.75.4.53.4-.74.63-1.6,1.43-.73,2.26.74,1,1.34,1.2-.93,2.4-1,1.9,1,1.88-.9L44,43l2.53-4.32L48,32.81l-.54-4.28-1.28-4-3.69-5.13Z" transform="translate(0.5 -0.61)"/><path class="cls-2" d="M8.34,17.33a4.11,4.11,0,0,0,2.44-2.83c.66-1.78,1.39-2.51,2.9-2.49C17,6.48,23.14,7.44,23.85,13.5c.71-6.06,6.87-7,10.17-1.49,1.5,0,2.23.71,2.89,2.49a4.1,4.1,0,0,0,2.45,2.83c-2,2.31-4.17,1.05-5.55-1.54C33.2,19,31,19,29.81,18.44a2.65,2.65,0,0,1-1.26-2.64,1.79,1.79,0,0,1,3.28-.65c0-5.32-4.42-5.23-5.23-1.78a2.25,2.25,0,0,0,1.62,1.35c-.19,1.65-1.16,2.75-3.08,1.9a12,12,0,0,1-1.29,1.93,12,12,0,0,1-1.29-1.93c-1.92.85-2.9-.25-3.09-1.9a2.26,2.26,0,0,0,1.63-1.35c-.81-3.45-5.24-3.54-5.23,1.78a1.78,1.78,0,0,1,3.27.65,2.66,2.66,0,0,1-1.25,2.64c-1.19.55-3.4.6-4-2.65C12.5,18.38,10.3,19.64,8.34,17.33Z" transform="translate(0.5 -0.61)"/><path class="cls-3" d="M20.06,5.68c.79-.89,1.61-2,2.83-1.08A3.62,3.62,0,0,1,24,.61a3.62,3.62,0,0,1,1.11,4c1.22-1,2,.19,2.83,1.08-2.38-.5-2.29,3-3.94,3.08s-1.56-3.58-3.94-3.08" transform="translate(0.5 -0.61)"/><path class="cls-2" d="M47.8,32c0-6.39-3.46-12.33-8.66-14.85" transform="translate(0.5 -0.61)"/><path class="cls-2" d="M0,32c0-6.39,3.46-12.33,8.66-14.85" transform="translate(0.5 -0.61)"/><path class="cls-2" d="M8.34,46.67a4.11,4.11,0,0,1,2.44,2.83c.66,1.78,1.39,2.51,2.9,2.49,3.3,5.53,9.46,4.57,10.17-1.49.71,6.06,6.87,7,10.17,1.49,1.5,0,2.23-.71,2.89-2.49a4.1,4.1,0,0,1,2.45-2.83c-2-2.31-4.17-1.05-5.55,1.54C33.2,45,31,45,29.81,45.56a2.64,2.64,0,0,0-1.26,2.63,1.79,1.79,0,0,0,3.28.66c0,5.32-4.42,5.23-5.23,1.78a2.25,2.25,0,0,1,1.62-1.35c-.19-1.65-1.16-2.75-3.08-1.9a11.12,11.12,0,0,0-1.29-1.92,11.12,11.12,0,0,0-1.29,1.92c-1.92-.85-2.9.25-3.09,1.9a2.26,2.26,0,0,1,1.63,1.35c-.81,3.45-5.24,3.54-5.23-1.78a1.78,1.78,0,0,0,3.27-.66,2.65,2.65,0,0,0-1.25-2.63c-1.19-.55-3.4-.6-4,2.65C12.5,45.62,10.3,44.36,8.34,46.67Z" transform="translate(0.5 -0.61)"/><path class="cls-3" d="M19.91,58.31c.79.89,1.6,2,2.82,1.08a3.64,3.64,0,0,0,1.12,4,3.65,3.65,0,0,0,1.11-4c1.22,1,2-.19,2.82-1.08-2.38.5-2.29-3-3.93-3.08s-1.56,3.58-3.94,3.08" transform="translate(0.5 -0.61)"/><path class="cls-2" d="M47.8,32c0,6.38-3.46,12.33-8.66,14.85" transform="translate(0.5 -0.61)"/><path class="cls-2" d="M0,32c0,6.38,3.46,12.33,8.66,14.85" transform="translate(0.5 -0.61)"/></svg>