<svg xmlns="http://www.w3.org/2000/svg" width="65.877" height="92.563" viewBox="0 0 65.877 92.563"><g transform="translate(-7145.534 -3321.655)"><path d="M7210.417,3359.749v16.375l-15.335,15.323v4.822L7178.55,3412.8h-.078l10.215-10.215-10.215-10.215-10.215,10.215,10.215,10.215h-.078l-16.531-16.531v-4.822l-15.335-15.323v-16.375l15.335-15.323V3339.6l16.531-16.531h.078l-10.215,10.215,10.215,10.215,10.215-10.215-10.215-10.215h.078l16.531,16.531v4.822Z" fill="#dcc882" opacity="0.2"/><rect width="14.448" height="14.448" transform="translate(7168.256 3333.286) rotate(-45)" fill="none" stroke="#c8aa6e" stroke-miterlimit="10" stroke-width="2"/><rect width="14.448" height="14.448" transform="translate(7168.256 3402.587) rotate(-45)" fill="none" stroke="#c8aa6e" stroke-miterlimit="10" stroke-width="2"/><path d="M7146.534,3370.946v-11.194l15.325-15.325v-4.817l16.541-16.541h.146l16.541,16.541v4.817l15.325,15.325v16.37l-15.325,15.325v4.817l-16.541,16.541h-.146l-16.541-16.541v-4.817l-15.325-15.325v-5.175Z" fill="none" stroke="#c8aa6e" stroke-miterlimit="10" stroke-width="2"/></g></svg>