<svg xmlns="http://www.w3.org/2000/svg" width="180.439" height="51.939" viewBox="0 0 180.439 51.939"><g transform="translate(-19.78 -817.78)"><path d="M184.365,819H35.635A14.635,14.635,0,0,0,21,833.635v20.23A14.635,14.635,0,0,0,35.635,868.5H83.683L71.91,856.727H61.2L48.476,844v-.112L61.2,831.16H71.91L83.7,819.368h52.6L148.09,831.16H158.8l12.728,12.728V844L158.8,856.727H148.09L136.317,868.5h48.048A14.635,14.635,0,0,0,199,853.865v-20.23A14.635,14.635,0,0,0,184.365,819ZM40.2,851.861,32.343,844l7.861-7.861L48.065,844Zm139.592,0L171.935,844l7.861-7.861L187.657,844Z" fill="#dcc882" opacity="0.271"/><rect width="11.117" height="11.117" transform="translate(171.935 843.806) rotate(-45)" fill="none" stroke="#c8b46e" stroke-miterlimit="10" stroke-width="2.5"/><rect width="11.117" height="11.117" transform="translate(40.204 851.667) rotate(-135)" fill="none" stroke="#c8b46e" stroke-miterlimit="10" stroke-width="2.5"/><path d="M97.684,868.325H136.3l11.792-11.792H158.8l12.727-12.727v-.112L158.8,830.966H148.09L136.3,819.175H97.684" fill="none" stroke="#c8b46e" stroke-miterlimit="10" stroke-width="2.5"/><path d="M122.316,868.325H83.7L71.91,856.534H61.2L48.476,843.806v-.112L61.2,830.966H71.91L83.7,819.175h38.614" fill="none" stroke="#c8b46e" stroke-miterlimit="10" stroke-width="2.5"/><rect width="178" height="49.5" rx="14.635" transform="translate(21 819)" fill="none" stroke="#c8b46e" stroke-miterlimit="10" stroke-width="2.439"/></g></svg>