<svg xmlns="http://www.w3.org/2000/svg" width="1040.5" height="118.5" viewBox="0 0 1040.5 118.5"><g transform="translate(-19.75 -638.75)"><path d="M1029,640H51a30,30,0,0,0-30,30v56a30,30,0,0,0,30,30h978a30,30,0,0,0,30-30V670A30,30,0,0,0,1029,640ZM185.5,713l-15-15,15-15,15,15Zm692.215-15-24.286,24.285H833l-22.5,22.5h-542l-22.5-22.5H225.571L201.285,698v-.215L225.571,673.5H246L268.5,651h542L833,673.5h20.429l24.286,24.285ZM893.5,713l-15-15,15-15,15,15Z" fill="#dcc882" opacity="0.268"/><rect width="1038" height="116" rx="30" transform="translate(21 640)" fill="none" stroke="#c8b46e" stroke-miterlimit="10" stroke-width="2.5"/><rect width="21.213" height="21.213" transform="translate(878.5 698) rotate(-45)" fill="none" stroke="#c8b46e" stroke-miterlimit="10" stroke-width="2.5"/><rect width="21.213" height="21.213" transform="translate(185.5 713) rotate(-135)" fill="none" stroke="#c8b46e" stroke-miterlimit="10" stroke-width="2.5"/><path d="M516,744.785H810.5l22.5-22.5h20.429L877.715,698v-.215L853.429,673.5H833L810.5,651H516" fill="none" stroke="#c8b46e" stroke-miterlimit="10" stroke-width="2.5"/><path d="M563,744.785H268.5l-22.5-22.5H225.571L201.285,698v-.215L225.571,673.5H246L268.5,651H563" fill="none" stroke="#c8b46e" stroke-miterlimit="10" stroke-width="2.5"/><path d="M247,745.285H127l24-24L128.954,699.24a1.552,1.552,0,0,1-.454-1.1h0a1.55,1.55,0,0,1,.454-1.1L151,675l-24-24H247" fill="none" stroke="#c8b46e" stroke-miterlimit="10" stroke-width="2.5"/><path d="M35,697.285v28.477a20.023,20.023,0,0,0,20.023,20.023H103.5l47.5-47.5,36,36,14-14,13,13" fill="none" stroke="#c8b46e" stroke-miterlimit="10" stroke-width="2.5"/><path d="M35,699.5V671.023A20.024,20.024,0,0,1,55.023,651H103.5L151,698.5l36-36,14,14,13-13" fill="none" stroke="#c8b46e" stroke-miterlimit="10" stroke-width="2.5"/><path d="M833,745.285H953l-24-24,22.046-22.045a1.552,1.552,0,0,0,.454-1.1h0a1.55,1.55,0,0,0-.454-1.1L929,675l24-24H833" fill="none" stroke="#c8b46e" stroke-miterlimit="10" stroke-width="2.5"/><path d="M1045,697.285v28.477a20.023,20.023,0,0,1-20.023,20.023H976.5l-47.5-47.5-36,36-14-14-13,13" fill="none" stroke="#c8b46e" stroke-miterlimit="10" stroke-width="2.5"/><path d="M1045,699.5V671.023A20.023,20.023,0,0,0,1024.977,651H976.5L929,698.5l-36-36-14,14-13-13" fill="none" stroke="#c8b46e" stroke-miterlimit="10" stroke-width="2.5"/></g></svg>